<svg width="49" height="40" viewBox="0 0 49 40" fill="none" xmlns="http://www.w3.org/2000/svg">
<path fill-rule="evenodd" clip-rule="evenodd" d="M32.9838 0.0142573C32.9191 0.0232647 32.6685 0.0577998 32.4268 0.0910761C26.8191 0.862567 22.9202 6.38761 24.0103 12.018C24.0863 12.4105 24.1373 12.3736 23.572 12.3359C15.9872 11.8301 8.80888 8.20031 3.82224 2.34907C3.58337 2.06873 3.37584 1.83942 3.3611 1.83942C3.31902 1.83942 2.94803 2.56576 2.77105 2.99461C1.00288 7.27962 2.33128 12.2389 5.98454 14.9914L6.39533 15.3009L6.04238 15.2746C4.83209 15.1845 3.57463 14.8414 2.45411 14.2955C2.1845 14.1642 1.94783 14.0489 1.92814 14.0394C1.879 14.0156 1.93057 15.0918 2.00281 15.5985C2.58297 19.6673 5.5383 22.9753 9.49042 23.9798L9.91882 24.0887L9.6865 24.1375C8.16766 24.4569 6.37846 24.4981 5.49783 24.2338C5.40065 24.2046 5.42202 24.2928 5.65642 24.889C7.07765 28.5031 10.5155 31.0151 14.3684 31.2546L14.7876 31.2807L14.415 31.5586C11.3155 33.8711 7.66581 35.2245 3.75522 35.5116C3.01615 35.5659 0.951895 35.5407 0.382987 35.4705C-0.126705 35.4076 -0.12694 35.4202 0.377967 35.7331C7.39879 40.083 16.2391 41.1778 24.2634 38.6911C35.9395 35.0727 44.1231 23.5882 44.0191 10.9667L44.0109 9.96552L44.4342 9.64149C46.0205 8.42738 47.5093 6.88208 48.6675 5.24772C48.9934 4.78771 49.0523 4.68218 48.9614 4.72093C47.521 5.33469 46.2294 5.7475 44.881 6.02507C44.3748 6.12927 43.3886 6.29006 43.37 6.27146C43.3644 6.26576 43.5046 6.16451 43.6817 6.04643C45.4491 4.86796 46.8867 3.00558 47.5744 1.00358C47.6851 0.681357 47.6961 0.682104 47.1727 0.977028C45.6338 1.8443 43.8589 2.54314 42.1016 2.97388C41.2437 3.18412 41.3286 3.19266 40.9752 2.86103C39.325 1.31294 37.5523 0.428087 35.4152 0.085766C35.0417 0.0259001 33.2738 -0.0260597 32.9838 0.0142573Z" fill="white"/>
</svg>
